<svg id="Шар_1" data-name="Шар 1" xmlns="http://www.w3.org/2000/svg" viewBox="0 0 1400 500"><defs><style>.cls-1,.cls-3{fill:none;}.cls-1{stroke:#f9f9c5;}.cls-1,.cls-2,.cls-3{stroke-miterlimit:10;}.cls-1,.cls-2{stroke-width:75px;}.cls-2{fill:#fad9a1;stroke:#fad9a1;}.cls-3{stroke:#000;}.cls-4{font-size:300px;fill:#fff;font-family:FranklinGothic-Medium, Franklin Gothic Medium;font-weight:500;}.cls-5{letter-spacing:-0.01em;}</style></defs><title>logo</title><polygon class="cls-1" points="94.77 150 94.77 350 267.97 450 441.18 350 441.18 150 267.97 50 94.77 150"/><polygon class="cls-2" points="203.02 212.5 203.02 287.5 267.97 325 332.92 287.5 332.92 212.5 267.97 175 203.02 212.5"/><polygon class="cls-3" points="181.37 200 181.37 300 267.97 350 354.57 300 354.57 200 267.97 150 181.37 200"/><polygon class="cls-3" points="73.07 137.5 73.07 362.5 267.92 475 462.78 362.5 462.78 137.5 267.92 25 73.07 137.5"/><text class="cls-4" transform="translate(547.92 350)">Fire<tspan class="cls-5" x="482.52" y="0">f</tspan><tspan x="575.54" y="0">ly</tspan></text></svg>