<svg class="svg-icon" style="width: 1em; height: 1em;vertical-align: middle;fill: currentColor;overflow: hidden;" viewBox="0 0 1024 1024" version="1.1" xmlns="http://www.w3.org/2000/svg"><path d="M323.413333 174.08L262.4 113.066667C160.213333 190.933333 92.8 311.253333 86.4 448h85.333333c6.613333-113.066667 64.853333-212.053333 151.68-273.92zM852.266667 448h85.333333c-6.4-136.746667-73.813333-257.066667-176-334.933333l-60.8 60.8c86.613333 62.08 144.853333 161.066667 151.466667 274.133333zM768 469.333333c0-131.2-69.76-240.64-192-269.653333V170.666667c0-35.413333-28.586667-64-64-64s-64 28.586667-64 64v29.013333c-122.24 29.013333-192 138.453333-192 269.653333v213.333334l-85.333333 85.333333v42.666667h682.666666v-42.666667l-85.333333-85.333333V469.333333zM512 938.666667c5.973333 0 11.733333-0.64 17.28-1.706667a86.186667 86.186667 0 0 0 61.44-50.346667c4.266667-10.24 6.613333-21.333333 6.613333-33.28h-170.666666c0 47.146667 38.186667 85.333333 85.333333 85.333334z" fill="#010101" /></svg>